<?xml version="1.0" standalone="no"?>
<!DOCTYPE svg PUBLIC "-//W3C//DTD SVG 20010904//EN"
 "http://www.w3.org/TR/2001/REC-SVG-20010904/DTD/svg10.dtd">
<svg version="1.0" xmlns="http://www.w3.org/2000/svg"
 width="392.000000pt" height="100.000000pt" viewBox="0 0 392.000000 100.000000"
 preserveAspectRatio="xMidYMid meet">

<g transform="translate(0.000000,100.000000) scale(0.100000,-0.100000)"
fill="#000000" stroke="none">
<path d="M620 865 c-146 -41 -251 -156 -281 -307 -30 -149 63 -323 211 -396
49 -24 66 -27 160 -27 94 0 111 3 160 27 71 35 143 107 178 178 37 76 44 209
14 288 -68 178 -268 285 -442 237z m241 -39 c93 -44 160 -120 190 -217 40
-128 13 -251 -76 -347 -80 -86 -151 -117 -270 -117 -77 1 -98 5 -147 29 -293
141 -267 566 41 668 79 26 188 19 262 -16z"/>
<path d="M596 820 c-94 -37 -146 -85 -197 -180 -20 -38 -24 -59 -24 -135 0
-76 4 -98 26 -145 33 -70 99 -136 169 -169 47 -22 69 -26 145 -26 75 0 97 4
135 24 67 35 122 82 116 97 -3 8 0 13 6 11 14 -3 59 74 53 91 -2 6 0 12 6 12
6 0 9 7 5 15 -3 8 -1 15 5 15 6 0 9 27 8 68 -2 75 -34 177 -51 166 -7 -5 -8
-2 -4 5 9 14 -22 53 -35 45 -5 -3 -6 3 -2 12 5 13 3 16 -10 11 -12 -4 -14 -2
-10 10 5 12 2 15 -10 10 -10 -4 -16 -2 -14 6 1 7 -6 11 -15 11 -10 -1 -15 2
-13 7 8 11 -33 31 -47 23 -7 -5 -8 -3 -3 6 6 10 3 12 -13 8 -12 -4 -20 -3 -17
2 16 26 -142 26 -209 0z m71 -26 c-3 -3 -12 -4 -19 -1 -8 3 -5 6 6 6 11 1 17
-2 13 -5z m169 -18 c28 -13 67 -40 87 -60 37 -37 77 -104 77 -128 0 -7 -10 7
-21 32 -36 80 -103 137 -194 166 -22 7 -31 13 -20 13 11 1 43 -10 71 -23z
m-256 -11 c-50 -26 -110 -84 -133 -130 l-15 -30 1 27 c1 14 4 25 7 23 3 -2 16
12 29 30 12 19 34 41 47 50 14 9 22 21 18 27 -4 7 -3 8 4 4 6 -4 24 0 39 8 16
8 33 15 38 15 6 0 -10 -11 -35 -24z m130 -95 c55 -16 66 -26 51 -44 -11 -13
-16 -13 -46 1 -88 42 -177 -64 -116 -138 19 -23 20 -23 26 -4 15 47 33 71 65
87 43 22 101 23 140 3 55 -28 27 -52 -36 -30 -62 21 -124 -16 -124 -75 0 -22
3 -23 38 -14 24 7 31 48 10 57 -17 7 9 27 35 27 14 0 17 -9 17 -50 0 -52 -15
-70 -59 -70 -12 0 -21 -5 -21 -11 0 -35 88 -52 126 -25 13 10 23 11 31 4 20
-16 16 -24 -21 -42 -68 -32 -161 -9 -187 46 -6 13 -25 32 -42 43 -44 27 -70
84 -61 130 11 63 53 98 134 114 3 0 21 -4 40 -9z m297 -122 c-3 -8 -6 -5 -6 6
-1 11 2 17 5 13 3 -3 4 -12 1 -19z m-558 -186 c37 -71 117 -132 198 -151 28
-7 31 -9 13 -10 -28 -1 -106 32 -132 56 -9 8 -22 12 -28 8 -6 -3 -9 -1 -8 7 2
7 -3 12 -10 10 -8 -1 -11 2 -8 7 6 10 -38 83 -46 76 -2 -2 -4 4 -5 13 -1 9 -4
35 -7 57 l-6 40 10 -38 c5 -20 18 -54 29 -75z m558 76 c-3 -8 -6 -5 -6 6 -1
11 2 17 5 13 3 -3 4 -12 1 -19z m-23 -70 c-9 -18 -26 -46 -38 -61 -22 -30
-102 -87 -120 -87 -6 1 5 9 25 20 47 25 113 98 130 144 7 21 15 33 17 27 2 -5
-5 -25 -14 -43z m-388 -60 c4 -6 3 -8 -4 -4 -6 3 -14 1 -18 -5 -3 -6 0 -15 7
-20 11 -7 10 -9 -3 -9 -11 0 -18 7 -18 18 0 31 22 43 36 20z m264 -23 c0 -9
-6 -12 -17 -8 -11 4 -14 3 -9 -5 7 -11 -6 -17 -27 -13 -4 1 -15 -6 -24 -14
-14 -15 -18 -14 -38 5 -12 11 -25 17 -28 13 -12 -11 -8 -21 11 -26 16 -4 16
-5 -1 -6 -10 0 -21 9 -26 22 l-9 22 -10 -25 c-10 -24 -11 -24 -11 -2 -1 12 -3
22 -5 22 -2 0 -13 3 -23 6 -15 6 -16 4 -5 -7 17 -18 15 -29 -5 -29 -14 0 -15
2 -5 9 10 6 10 10 -3 21 -12 10 -15 10 -15 0 0 -8 -2 -11 -5 -8 -3 3 -3 12 1
21 4 12 11 13 32 6 45 -15 103 -17 141 -6 20 6 42 10 49 8 6 -1 12 3 12 9 0 6
5 8 10 5 6 -3 10 -13 10 -20z m-83 -81 c-3 -3 -12 -4 -19 -1 -8 3 -5 6 6 6 11
1 17 -2 13 -5z"/>
<path d="M760 254 c0 -8 5 -12 10 -9 6 3 10 10 10 16 0 5 -4 9 -10 9 -5 0 -10
-7 -10 -16z"/>
</g>
</svg>
